<?xml version="1.0" encoding="UTF-8"?>
<svg width="98px" height="36px" viewBox="0 0 98 36" version="1.1" xmlns="http://www.w3.org/2000/svg" xmlns:xlink="http://www.w3.org/1999/xlink">
    <!-- Generator: Sketch 55.2 (78181) - https://sketchapp.com -->
    <title>Logo</title>
    <desc>Created with Sketch.</desc>
    <g id="HOLO">
        <g transform="translate(-30.000000, -12.000000)" id="Head">
            <g>
                <g id="Logo" transform="translate(30.000000, 12.000000)">
                    <path d="M-2.61124455e-13,7.74683544 C2.50316716,8.11139241 5.00633431,8.56708861 7.26881232,8.70379747 C11.1679765,8.93164557 14.5376246,9.02278481 18.4849267,8.97721519 C20.8436804,8.93164557 25.9462903,8.79493671 29.0752493,7.6556962 C27.5348387,8.74936709 25.0316716,9.93417722 23.1061584,10.6632911 C18.7256158,12.3037975 14.2969355,12.3493671 9.72384164,11.3012658 C7.02812317,10.6632911 4.47681818,9.84303797 1.97365103,8.74936709 C1.39599707,8.47594937 0.818343109,8.15696203 -2.61124455e-13,7.74683544 Z M27.0053226,9.79746835 C25.9944282,11.2101266 24.4540176,13.8075949 23.9245015,15.4481013 C21.3250587,15.1291139 18.8218915,14.035443 16.2224487,13.0329114 C19.8327859,12.6683544 23.8282258,11.4379747 27.0053226,9.79746835 Z M32.4930352,19.4126582 C31.5784164,18.0911392 31.2414516,16.5417722 31.145176,15.6759494 C30.6156598,11.6658228 31.0007625,8.65822785 32.3967595,6.15189873 C34.8517889,1.54936709 39.5211584,0.455696203 42.1206012,0.227848101 C39.5211584,1.64050633 38.6546774,5.33164557 38.5584018,7.61012658 C38.4139883,11.5291139 36.4403372,15.4481013 32.6855865,19.2303797 C32.6374487,19.2759494 32.541173,19.321519 32.4930352,19.4126582 Z M26.6202199,27.1594937 C24.3096041,23.5139241 23.6356745,20.3240506 24.5502933,17.1341772 C25.7056012,13.2151899 27.5829765,10.1164557 30.567522,7.24556962 C29.1715249,12.6227848 29.5084897,16.6329114 31.5784164,20.4151899 L31.4821408,20.5063291 C29.4122141,22.4202532 27.7755279,24.6531646 26.6202199,27.1594937 Z M24.5984311,35.7721519 C23.2505718,31.5797468 22.8173314,27.1594937 23.3468475,22.0556962 C23.5393988,22.9670886 23.7319501,23.7873418 24.068915,24.6075949 C24.3577419,25.3822785 24.7428446,26.156962 25.1279472,26.9316456 C25.3686364,27.3873418 25.6093255,27.843038 25.8018768,28.3443038 C25.8500147,28.4810127 25.8981525,28.6177215 25.9944282,28.7544304 C25.4167742,30.2582278 25.0316716,31.8075949 24.8391202,33.356962 C24.6465689,34.1316456 24.5984311,34.9518987 24.5984311,35.7721519 Z" id="形状结合"></path>
                    <path d="M42.6547035,10.8 C43.7904964,10.8 44.4057176,10.8 45.5415105,10.8 C45.0209388,12.9832258 44.7843152,14.0516129 44.2637435,16.1883871 C46.913927,16.1883871 48.2390187,16.1883871 50.8418775,16.1883871 C51.3624493,14.0051613 51.5990728,12.9367742 52.1196446,10.8 C53.2554375,10.8 53.8706587,10.8 55.0064516,10.8 C53.8706587,15.5845161 52.687541,20.4154839 51.5517481,25.2 C50.4159552,25.2 49.800734,25.2 48.6649411,25.2 C49.2801623,22.5987097 49.6114352,21.2980645 50.2266564,18.6967742 C47.5764729,18.6967742 46.2513811,18.6967742 43.6485223,18.6967742 C43.0333011,21.2980645 42.7020282,22.5987097 42.086807,25.2 C40.9510141,25.2 40.3357929,25.2 39.2,25.2 C40.3357929,20.4154839 41.5189106,15.5845161 42.6547035,10.8 Z" id="路径"></path>
                    <path d="M65.057568,10.2 C66.1994454,10.2 67.1985881,10.3840491 68.0074179,10.7981595 C68.8162476,11.2122699 69.4823428,11.7644172 69.9105468,12.4546012 C70.386329,13.1447853 70.6717983,13.9269939 70.7669548,14.8472393 C70.8621112,15.7674847 70.814533,16.7337423 70.5766419,17.7 C70.3387508,18.7122699 69.9105468,19.6785276 69.3871863,20.5527607 C68.8162476,21.4730061 68.1501525,22.2552147 67.3413227,22.9453988 C66.5324929,23.6355828 65.6285067,24.1877301 64.629364,24.6018405 C63.6302213,25.0159509 62.5359222,25.2 61.3940449,25.2 C60.2521675,25.2 59.2530248,25.0159509 58.4441951,24.6018405 C57.6353653,24.1877301 56.9692701,23.6355828 56.5410661,22.9453988 C56.0652839,22.2552147 55.7798146,21.4730061 55.6846581,20.5527607 C55.5895017,19.6325153 55.6370799,18.6662577 55.874971,17.7 C56.1128621,16.6877301 56.5410661,15.7214724 57.0644266,14.8472393 C57.6353653,13.9269939 58.3014604,13.1447853 59.1102902,12.4546012 C59.91912,11.7644172 60.8231062,11.2122699 61.8222489,10.7981595 C62.8213916,10.3840491 63.9156907,10.2 65.057568,10.2 Z M64.4390511,12.6846626 C63.6777996,12.6846626 62.9641262,12.8226994 62.3456093,13.098773 C61.7270924,13.3748466 61.203732,13.7889571 60.7279498,14.2490798 C60.2521675,14.7092025 59.8715417,15.2613497 59.5384942,15.8595092 C59.2054466,16.4576687 59.0151337,17.0558282 58.8248208,17.7 C58.6820862,18.3441718 58.5869297,18.9423313 58.6345079,19.5404908 C58.6345079,20.1386503 58.7772426,20.6907975 59.0151337,21.1509202 C59.2530248,21.6110429 59.6336506,22.0251534 60.1094329,22.301227 C60.5852151,22.5773006 61.203732,22.7153374 61.9649835,22.7153374 C62.7262351,22.7153374 63.4399085,22.5773006 64.0584254,22.301227 C64.6769422,22.0251534 65.2003027,21.6110429 65.6760849,21.1509202 C66.1518672,20.6907975 66.5324929,20.1386503 66.8655405,19.5404908 C67.1985881,18.9423313 67.388901,18.3441718 67.5792138,17.7 C67.7219485,17.1018405 67.7695267,16.4576687 67.7695267,15.8595092 C67.7695267,15.2613497 67.6267921,14.7092025 67.388901,14.2490798 C67.1510098,13.7889571 66.7703841,13.3748466 66.2946018,13.098773 C65.8663978,12.8226994 65.2003027,12.6846626 64.4390511,12.6846626 Z" id="形状"></path>
                    <path d="M74.3977451,10.8 C75.5763232,10.8 76.2147197,10.8 77.3932978,10.8 C76.4111494,14.7483871 75.4290009,18.7432258 74.4468525,22.6916129 C77.0495459,22.6916129 78.3263389,22.6916129 80.9290323,22.6916129 C80.6834951,23.7135484 80.5361729,24.1780645 80.2906358,25.2 C76.5093642,25.2 74.5941748,25.2 70.8129032,25.2 C71.9914814,20.4154839 73.1700595,15.5845161 74.3977451,10.8 Z" id="路径"></path>
                    <path d="M92.2446648,10.2 C93.3865422,10.2 94.3856848,10.3840491 95.1945146,10.7981595 C96.0033444,11.2122699 96.6694395,11.7644172 97.0976435,12.4546012 C97.5734258,13.1447853 97.8588951,13.9269939 97.9540516,14.8472393 C98.049208,15.7674847 98.0016298,16.7337423 97.7637387,17.7 C97.5258475,18.7122699 97.0976435,19.6785276 96.5742831,20.5527607 C96.0033444,21.4730061 95.3372493,22.2552147 94.5284195,22.9453988 C93.7195897,23.6355828 92.8156035,24.1877301 91.8164608,24.6018405 C90.8173181,25.0159509 89.723019,25.2 88.5811416,25.2 C87.4392643,25.2 86.4401216,25.0159509 85.6312918,24.6018405 C84.822462,24.1877301 84.1563669,23.6355828 83.7281629,22.9453988 C83.2523807,22.2552147 82.9669113,21.4730061 82.8717549,20.5527607 C82.7765985,19.6325153 82.8241767,18.6662577 83.0620678,17.7 C83.2999589,16.6877301 83.7281629,15.7214724 84.2515234,14.8472393 C84.822462,13.9269939 85.4885572,13.1447853 86.2973869,12.4546012 C87.1062167,11.7644172 88.010203,11.2122699 89.0093457,10.7981595 C90.0084883,10.3840491 91.0552092,10.2 92.2446648,10.2 Z M91.6261479,12.6846626 C90.8648963,12.6846626 90.151223,12.8226994 89.5327061,13.098773 C88.9141892,13.3748466 88.3908288,13.7889571 87.9150465,14.2490798 C87.4392643,14.7092025 87.0586385,15.2613497 86.725591,15.8595092 C86.3925434,16.4576687 86.2022305,17.0558282 86.0119176,17.7 C85.8691829,18.3441718 85.7740265,18.9423313 85.8216047,19.5404908 C85.8216047,20.1386503 85.9643394,20.6907975 86.2022305,21.1509202 C86.4401216,21.6110429 86.8207474,22.0251534 87.2965296,22.301227 C87.7723119,22.5773006 88.3908288,22.7153374 89.1520803,22.7153374 C89.9133319,22.7153374 90.6270052,22.5773006 91.2455221,22.301227 C91.864039,22.0251534 92.3873995,21.6110429 92.8631817,21.1509202 C93.3389639,20.6907975 93.7195897,20.1386503 94.0526373,19.5404908 C94.3856848,18.9423313 94.5759977,18.3441718 94.7663106,17.7 C94.9090453,17.1018405 94.9566235,16.4576687 94.9566235,15.8595092 C94.9566235,15.2613497 94.8138888,14.7092025 94.5759977,14.2490798 C94.3381066,13.7889571 93.9574808,13.3748466 93.4816986,13.098773 C93.0059164,12.8226994 92.3873995,12.6846626 91.6261479,12.6846626 Z" id="形状"></path>
                </g>
            </g>
        </g>
    </g>
</svg>
