<svg xmlns="http://www.w3.org/2000/svg" xmlns:xlink="http://www.w3.org/1999/xlink" width="125" height="50" viewBox="0 0 125 50">
  <defs>
    <style>
      .cls-1 {
        fill: #b7b7b7;
      }

      .cls-2 {
        clip-path: url(#clip-path);
      }

      .cls-3 {
        fill: url(#linear-gradient);
      }

      .cls-4 {
        fill: url(#linear-gradient-2);
      }

      .cls-5 {
        fill: url(#linear-gradient-3);
      }

      .cls-6 {
        fill: url(#linear-gradient-4);
      }

      .cls-7 {
        fill: url(#linear-gradient-5);
      }

      .cls-8 {
        fill: url(#linear-gradient-6);
      }

      .cls-9 {
        fill: url(#linear-gradient-7);
      }

      .cls-10 {
        fill: url(#linear-gradient-8);
      }

      .cls-11 {
        fill: url(#linear-gradient-9);
      }

      .cls-12 {
        fill: url(#linear-gradient-10);
      }

      .cls-13 {
        fill: url(#linear-gradient-11);
      }

      .cls-14 {
        fill: url(#linear-gradient-12);
      }

      .cls-15 {
        fill: url(#linear-gradient-13);
      }

      .cls-16 {
        fill: url(#linear-gradient-14);
      }

      .cls-17 {
        fill: url(#linear-gradient-15);
      }

      .cls-18 {
        fill: url(#linear-gradient-16);
      }

      .cls-19 {
        fill: url(#linear-gradient-17);
      }

      .cls-20 {
        fill: url(#linear-gradient-18);
      }

      .cls-21 {
        fill: url(#linear-gradient-19);
      }

      .cls-22 {
        fill: url(#linear-gradient-20);
      }

      .cls-23 {
        fill: url(#linear-gradient-21);
      }

      .cls-24 {
        fill: url(#linear-gradient-22);
      }

      .cls-25 {
        fill: url(#linear-gradient-23);
      }

      .cls-26 {
        fill: url(#linear-gradient-24);
      }

      .cls-27 {
        fill: url(#linear-gradient-25);
      }

      .cls-28 {
        fill: url(#linear-gradient-26);
      }

      .cls-29 {
        fill: url(#linear-gradient-27);
      }
    </style>
    <clipPath id="clip-path">
      <rect id="矩形_1" data-name="矩形 1" class="cls-1" width="125" height="50" transform="translate(53 39)"/>
    </clipPath>
    <linearGradient id="linear-gradient" x1="0.501" y1="1.016" x2="0.501" y2="-1.793" gradientUnits="objectBoundingBox">
      <stop offset="0" stop-color="#e60033"/>
      <stop offset="0.263" stop-color="#e40032"/>
      <stop offset="0.573" stop-color="#db0030"/>
      <stop offset="0.905" stop-color="#cc002c"/>
      <stop offset="1" stop-color="#c7002a"/>
    </linearGradient>
    <linearGradient id="linear-gradient-2" x1="0.5" y1="1.008" x2="0.5" y2="-0.354" xlink:href="#linear-gradient"/>
    <linearGradient id="linear-gradient-3" x1="0.5" y1="5.657" x2="0.5" y2="0.48" xlink:href="#linear-gradient"/>
    <linearGradient id="linear-gradient-4" x1="0.5" y1="5.657" x2="0.5" y2="0.48" xlink:href="#linear-gradient"/>
    <linearGradient id="linear-gradient-5" x1="0.5" y1="4.085" x2="0.5" y2="0.346" xlink:href="#linear-gradient"/>
    <linearGradient id="linear-gradient-6" x1="0.5" y1="1.007" x2="0.5" y2="-0.174" xlink:href="#linear-gradient"/>
    <linearGradient id="linear-gradient-7" x1="0.5" y1="1.005" x2="0.5" y2="0.085" xlink:href="#linear-gradient"/>
    <linearGradient id="linear-gradient-8" x1="0.004" y1="0.5" x2="1.319" y2="0.5" xlink:href="#linear-gradient"/>
    <linearGradient id="linear-gradient-9" x1="1.006" y1="0.501" x2="-0.011" y2="0.501" gradientUnits="objectBoundingBox">
      <stop offset="0" stop-color="#e60033"/>
      <stop offset="0.15" stop-color="#e30032"/>
      <stop offset="0.337" stop-color="#da0030"/>
      <stop offset="0.544" stop-color="#ca002b"/>
      <stop offset="0.766" stop-color="#b20023"/>
      <stop offset="0.996" stop-color="#910016"/>
      <stop offset="1" stop-color="#910015"/>
    </linearGradient>
    <linearGradient id="linear-gradient-10" x1="0.499" y1="1.122" x2="0.499" y2="-4.43" xlink:href="#linear-gradient"/>
    <linearGradient id="linear-gradient-11" x1="0.5" y1="1.134" x2="0.5" y2="-5.991" xlink:href="#linear-gradient"/>
    <linearGradient id="linear-gradient-12" x1="0.5" y1="1.11" x2="0.5" y2="-4.804" xlink:href="#linear-gradient"/>
    <linearGradient id="linear-gradient-13" x1="0.5" y1="1.163" x2="0.5" y2="-6.302" xlink:href="#linear-gradient"/>
    <linearGradient id="linear-gradient-14" x1="0.5" y1="1.134" x2="0.5" y2="-6.002" xlink:href="#linear-gradient"/>
    <linearGradient id="linear-gradient-15" x1="0.501" y1="1.161" x2="0.501" y2="-6.144" xlink:href="#linear-gradient"/>
    <linearGradient id="linear-gradient-16" x1="0.499" y1="1.163" x2="0.499" y2="-6.302" xlink:href="#linear-gradient"/>
    <linearGradient id="linear-gradient-17" x1="0.501" y1="1.123" x2="0.501" y2="-4.45" xlink:href="#linear-gradient"/>
    <linearGradient id="linear-gradient-18" x1="0.499" y1="1.136" x2="0.499" y2="-6.011" xlink:href="#linear-gradient"/>
    <linearGradient id="linear-gradient-19" x1="0.5" y1="1.433" x2="0.5" y2="-0.025" xlink:href="#linear-gradient"/>
    <linearGradient id="linear-gradient-20" x1="-0.044" y1="0.5" x2="0.994" y2="0.5" xlink:href="#linear-gradient-9"/>
    <linearGradient id="linear-gradient-21" x1="0.5" y1="1.589" x2="0.5" y2="-0.388" xlink:href="#linear-gradient"/>
    <linearGradient id="linear-gradient-22" x1="0.5" y1="1.576" x2="0.5" y2="-0.366" xlink:href="#linear-gradient"/>
    <linearGradient id="linear-gradient-23" x1="0.5" y1="1.021" x2="0.5" y2="-0.299" xlink:href="#linear-gradient"/>
    <linearGradient id="linear-gradient-24" x1="0.5" y1="1.696" x2="0.5" y2="-0.652" xlink:href="#linear-gradient"/>
    <linearGradient id="linear-gradient-25" x1="0.5" y1="1.56" x2="0.5" y2="-0.325" xlink:href="#linear-gradient"/>
    <linearGradient id="linear-gradient-26" x1="0.5" y1="2.17" x2="0.5" y2="-1.765" xlink:href="#linear-gradient"/>
    <linearGradient id="linear-gradient-27" x1="0.5" y1="-0.366" x2="0.5" y2="0.945" gradientUnits="objectBoundingBox">
      <stop offset="0" stop-color="#e60033"/>
      <stop offset="0.204" stop-color="#e30032"/>
      <stop offset="0.458" stop-color="#da0030"/>
      <stop offset="0.737" stop-color="#ca002b"/>
      <stop offset="1" stop-color="#b60024"/>
    </linearGradient>
  </defs>
  <g id="蒙版组_1" data-name="蒙版组 1" class="cls-2" transform="translate(-53 -39)">
    <g id="公司logo" transform="translate(53 53.121)">
      <g id="组_4" data-name="组 4" transform="translate(0 0)">
        <g id="组_3" data-name="组 3">
          <g id="组_1" data-name="组 1" transform="translate(75.229)">
            <path id="路径_1" data-name="路径 1" class="cls-3" d="M106.438,32.451l-1.19,3.043h-1.769l-.551,2.5h2.617c1.426,0,1.82-.685,2.339-2.093.236-.657.7-2.037,1.065-3a1.812,1.812,0,0,1,.287-.449h-2.8Z" transform="translate(-94.494 -21.052)"/>
            <path id="路径_2" data-name="路径 2" class="cls-4" d="M96.805,34.284l-.25,1.215c-.153.8-.3,2.5,1.065,2.613h4.418l.542-2.5H99.343l.57-2.807h2.76l.449-2.1h-2.788l.4-1.942h2.816l.482-2.1H95.884l-.482,2.1h2.533l-.394,1.942h-2.58l-.468,2.1H97.1Z" transform="translate(-94.494 -21.17)"/>
            <path id="路径_3" data-name="路径 3" class="cls-5" d="M116.757,21.285h-3.094l-.787,3.01h2.793Z" transform="translate(-94.494 -21.28)"/>
            <path id="路径_4" data-name="路径 4" class="cls-6" d="M111.278,21.285H108.5l-.556,3.01H110.5Z" transform="translate(-94.494 -21.28)"/>
            <path id="路径_5" data-name="路径 5" class="cls-7" d="M98.681,25.453h5.636l.458-2.046H99.366l.843-2.117v0H97.671l-1.533,4.149h0l0,.019h2.547Z" transform="translate(-94.494 -21.28)"/>
            <path id="路径_6" data-name="路径 6" class="cls-8" d="M110.4,31.919s-1,4.357-1.121,4.891-.042,1.337.94,1.337h5.636l.352-1.5c0-.014.009-.024.014-.038a1.987,1.987,0,0,1,.472-.983h-.245v0h-3.825l.8-3.71h1.477A1.962,1.962,0,0,0,117,30.09c.079-.449.343-1.857.565-3,0-.024-1.862.52-2.862.813l-.449,2.183h-6.3s-1.037.345-2.7.926c.153-.113,2.691-1.73,2.668-1.725l.565-2.557h4.455a47.926,47.926,0,0,1,4.506-1.786H106.072l-1.565,6.961H110.4Z" transform="translate(-94.494 -21.205)"/>
            <path id="路径_7" data-name="路径 7" class="cls-9" d="M117.618,35.694l-.6,2.528h5.043a2.024,2.024,0,0,0,2.126-1.337l.63-2.524.885-3.53.787-3.138.787-3.143c2.482-.487,4.826-.836,6.942-1.063l-.315,1.356h-4.812l-.435,1.711h4.84l-.245,1.054H128.39l-.468,1.9H132.8l-.185.766h-4.891l-.482,1.914h4.918l-.843,3.582a2.18,2.18,0,0,1-1.653-1.422l.32-1.309h-2.945l-1.283,5.184h2.955l.236-.931a2.486,2.486,0,0,0,1.741.94h8.795s.366-1.541.366-1.555a1.987,1.987,0,0,1,.472-.983l-6.081,0,.2-.836h4.182l.458-1.815h-4.21l.227-.95h3.256a1.791,1.791,0,0,0,1.709-1.148l.449-1.517h.977l.445-1.909h-.982l.644-2.765h-4.765l.361-1.536a68.07,68.07,0,0,1,7.072-.194,31.3,31.3,0,0,0-6.794-.893l.185-.846h-2.9l-.19.8a63.432,63.432,0,0,0-6.789.43l.32-1.233h-3.052l-.431,1.682a50.083,50.083,0,0,0-4.96,1.1l-.644,2.623c1.7-.558,3.381-1.025,5.029-1.427l-.8,3.2-3.7,1.167-.653,2.835,3.64-1.139-1.1,4.367h-3.8Zm18.775-9.144,2.362.009-.269,1.054h-2.325Zm-.672,2.878h2.4s-.19.94-.658.94l-1.964.014Z" transform="translate(-94.494 -21.28)"/>
          </g>
          <g id="组_2" data-name="组 2" transform="translate(0 0.005)">
            <path id="路径_8" data-name="路径 8" class="cls-10" d="M83.3,21.294c-.306,0-.616-.009-.935-.009a78.853,78.853,0,0,0-20.738,2.689l-.616,3.157h0q.632-.206,1.264-.4C65.327,25.2,72.154,22.438,83.3,21.294Z" transform="translate(-19.266 -21.285)"/>
            <path id="路径_9" data-name="路径 9" class="cls-11" d="M88.252,22.107c1.94-.113,3.061-.128,3.061-.128-.4-.08-.843-.156-1.32-.227A51.851,51.851,0,0,0,83.3,21.29C72.154,22.433,65.327,25.2,62.28,26.729A114.973,114.973,0,0,1,88.252,22.107Z" transform="translate(-19.266 -21.285)"/>
            <path id="路径_12" data-name="路径 12" class="cls-12" d="M25.356,38.648c-.125,0-.31,0-.556,0-.046.151-.079.255-.1.317l-.959,2.661c-.195-.4-.463-.9-.8-1.507s-.593-1.1-.773-1.474c-.3,0-.528,0-.685,0-.213,0-.468,0-.769,0-.12.392-.278.846-.463,1.356l-.519,1.4c-.157.425-.31.808-.468,1.153.3,0,.491,0,.579,0,.111,0,.287,0,.528,0,.153-.468.292-.87.417-1.215.3-.836.509-1.413.625-1.725.111.222.25.482.412.78.222.4.408.737.56,1,.227.392.38.652.445.78.042.08.1.208.181.378.343,0,.588,0,.741,0,.19,0,.421,0,.69,0l.37-1.063.672-1.8.421-1.054C25.587,38.648,25.4,38.648,25.356,38.648Z" transform="translate(-19.266 -20.931)"/>
            <path id="路径_13" data-name="路径 13" class="cls-13" d="M29.7,39.862a1.216,1.216,0,0,0-.537-.241,3.614,3.614,0,0,0-.741-.076,4.14,4.14,0,0,0-.838.09,2.611,2.611,0,0,0-.787.3,2.325,2.325,0,0,0-.644.543,1.963,1.963,0,0,0-.38.681,1.258,1.258,0,0,0-.042.61.827.827,0,0,0,.3.487,1.462,1.462,0,0,0,.63.274,5,5,0,0,0,.9.076c.2,0,.394-.009.593-.024s.449-.047.746-.085c.148-.293.264-.5.333-.61-.31.071-.579.118-.8.146a4.781,4.781,0,0,1-.6.043,2.09,2.09,0,0,1-.454-.052.941.941,0,0,1-.366-.161.51.51,0,0,1-.181-.274.669.669,0,0,1,.019-.354c.014-.043.032-.095.06-.17H29.8a1.331,1.331,0,0,0,.125-.279.9.9,0,0,0,.028-.515A.788.788,0,0,0,29.7,39.862Zm-.806.865H27.051a1.709,1.709,0,0,1,.144-.217.993.993,0,0,1,.171-.17,1.37,1.37,0,0,1,.259-.161,1.823,1.823,0,0,1,.32-.109,1.6,1.6,0,0,1,.333-.038,1.128,1.128,0,0,1,.259.024.9.9,0,0,1,.2.066.443.443,0,0,1,.134.109.319.319,0,0,1,.065.151.435.435,0,0,1,.009.151C28.936,40.571,28.917,40.637,28.889,40.727Z" transform="translate(-19.266 -20.912)"/>
            <path id="路径_14" data-name="路径 14" class="cls-14" d="M32.353,38.939c-.292.047-.5.08-.593.09l-.486.066c-.1.265-.171.454-.218.567h-.6c-.088.255-.157.439-.2.553h.565l-.458,1.191c-.093.232-.139.364-.157.411s-.028.071-.037.1a.744.744,0,0,0-.032.284.348.348,0,0,0,.13.236.684.684,0,0,0,.338.142,3.124,3.124,0,0,0,.509.043q.167,0,.361-.014c.13-.009.31-.033.542-.066.157-.284.269-.482.329-.586-.195.033-.329.052-.4.061a1.608,1.608,0,0,1-.208.009.662.662,0,0,1-.241-.043.207.207,0,0,1-.13-.142.566.566,0,0,1,.032-.274q.056-.184.5-1.347h1q.049-.17.195-.553h-1C32.168,39.44,32.251,39.194,32.353,38.939Z" transform="translate(-19.266 -20.925)"/>
            <path id="路径_15" data-name="路径 15" class="cls-15" d="M40.009,39.624c-.144,0-.315,0-.514,0l-.579.695-.959,1.125c-.074.085-.111.128-.12.137l-.148.189c0-.142,0-.227,0-.25l-.093-1.9c-.176,0-.352,0-.542,0s-.366,0-.56,0l-1.7,2.15-.25-2.15c-.176,0-.347,0-.5,0s-.352,0-.551,0l.1.5.232,1.4.148,1.016c.259,0,.454,0,.579,0s.283,0,.5,0l1.3-1.611c.195-.246.32-.4.384-.477l.079,2.089c.269,0,.468,0,.6,0s.3,0,.519,0c.31-.354.644-.728,1-1.115l1.635-1.8C40.31,39.624,40.129,39.624,40.009,39.624Z" transform="translate(-19.266 -20.911)"/>
            <path id="路径_16" data-name="路径 16" class="cls-16" d="M44.561,39.942a1.542,1.542,0,0,0-.616-.293,3.321,3.321,0,0,0-.838-.1,4.138,4.138,0,0,0-.982.123,3.174,3.174,0,0,0-.857.345,2.277,2.277,0,0,0-.588.51,1.857,1.857,0,0,0-.324.6,1.148,1.148,0,0,0-.032.6.856.856,0,0,0,.3.482,1.493,1.493,0,0,0,.611.3,3.322,3.322,0,0,0,.838.1,4.292,4.292,0,0,0,.959-.109,2.808,2.808,0,0,0,.829-.331,2.377,2.377,0,0,0,.607-.525,1.824,1.824,0,0,0,.347-.633,1.18,1.18,0,0,0,.037-.591A.833.833,0,0,0,44.561,39.942Zm-.871,1.063a1.48,1.48,0,0,1-.3.534,1.367,1.367,0,0,1-.5.369,1.7,1.7,0,0,1-.644.123,1.147,1.147,0,0,1-.546-.118.509.509,0,0,1-.255-.317.83.83,0,0,1,.028-.444,1.51,1.51,0,0,1,.292-.525,1.2,1.2,0,0,1,.509-.359,1.668,1.668,0,0,1,.648-.123,1.089,1.089,0,0,1,.551.118.468.468,0,0,1,.25.312A.826.826,0,0,1,43.69,41.006Z" transform="translate(-19.266 -20.912)"/>
            <path id="路径_17" data-name="路径 17" class="cls-17" d="M48.419,39.579a1.736,1.736,0,0,0-.315-.028,2.04,2.04,0,0,0-.338.028,1.769,1.769,0,0,0-.32.085,2.505,2.505,0,0,0-.278.128,3.638,3.638,0,0,0-.329.232l.144-.4c-.222,0-.4,0-.533,0-.116,0-.3,0-.537,0-.042.151-.069.241-.079.269-.051.165-.1.331-.157.491l-.273.789-.533,1.361c.227,0,.426,0,.584,0s.347,0,.546,0c.037-.137.065-.246.093-.336.069-.232.153-.473.241-.714a5.05,5.05,0,0,1,.208-.51,1.156,1.156,0,0,1,.2-.312,1.3,1.3,0,0,1,.306-.25,1.337,1.337,0,0,1,.361-.151,1.7,1.7,0,0,1,.421-.047,2.1,2.1,0,0,1,.408.043C48.308,39.985,48.368,39.758,48.419,39.579Z" transform="translate(-19.266 -20.912)"/>
            <path id="路径_18" data-name="路径 18" class="cls-18" d="M51.36,40.7l1.63-1.082c-.269,0-.482,0-.658,0-.125,0-.324,0-.593,0-.19.142-.343.255-.468.345s-.227.165-.315.227l-1.023.709c.069.123.107.189.12.208l.454.7c.056.085.116.18.176.288s.139.255.236.439c.25,0,.463,0,.63,0s.37,0,.607,0c-.607-.86-.973-1.408-1.1-1.626Z" transform="translate(-19.266 -20.911)"/>
            <path id="路径_19" data-name="路径 19" class="cls-19" d="M50.721,38.643c-.222,0-.4,0-.537,0-.116,0-.31,0-.584,0-.037.118-.093.293-.167.51l-.421,1.224-.533,1.432-.306.742c.232,0,.421,0,.574,0,.134,0,.315,0,.546,0l.12-.388.384-1.111.551-1.484Z" transform="translate(-19.266 -20.931)"/>
            <path id="路径_20" data-name="路径 20" class="cls-20" d="M54.569,39.64a1.531,1.531,0,0,0-.6.274.875.875,0,0,0-.3.4.462.462,0,0,0-.019.236.506.506,0,0,0,.1.222,1.1,1.1,0,0,0,.208.208c.088.066.213.156.384.274l.176.123c.06.038.107.076.139.1a.977.977,0,0,1,.069.071.3.3,0,0,1,.037.066.166.166,0,0,1,.014.061.325.325,0,0,1-.009.066.307.307,0,0,1-.125.161.625.625,0,0,1-.264.113A1.576,1.576,0,0,1,54,42.05a2.834,2.834,0,0,1-.477-.043,4.669,4.669,0,0,1-.607-.161l-.107.629a6.559,6.559,0,0,0,.695.095c.218.019.412.028.565.028a3.319,3.319,0,0,0,.852-.1,1.7,1.7,0,0,0,.634-.284.842.842,0,0,0,.306-.4.533.533,0,0,0,.019-.255.582.582,0,0,0-.111-.236,1.178,1.178,0,0,0-.232-.217l-.352-.246c-.139-.09-.222-.146-.264-.18a.434.434,0,0,1-.107-.1.2.2,0,0,1-.051-.1.221.221,0,0,1,0-.095.281.281,0,0,1,.125-.146.657.657,0,0,1,.273-.1,2.178,2.178,0,0,1,.412-.033,2.708,2.708,0,0,1,.838.137l.134-.6a9.082,9.082,0,0,0-1.162-.09A3.575,3.575,0,0,0,54.569,39.64Z" transform="translate(-19.266 -20.912)"/>
            <path id="路径_21" data-name="路径 21" class="cls-21" d="M43.968,25.883a3.782,3.782,0,0,0-.259-1.418c-.667-1.678-2.58-2.5-5.053-2.5h-10.8c4.1.217,9.911.978,11.013,3.54a1.371,1.371,0,0,1,.176.69c0,2.7-8.836,5.066-8.836,5.066L35.776,36.9h6.317a39.33,39.33,0,0,0-6.159-5.647C40.31,31.1,43.968,29.05,43.968,25.883Z" transform="translate(-19.266 -21.271)"/>
            <path id="路径_22" data-name="路径 22" class="cls-22" d="M27.857,21.956H23.712l-1,2.377H35.794s2.4-.052,3.075,1.163C37.767,22.935,31.955,22.174,27.857,21.956Z" transform="translate(-19.266 -21.271)"/>
            <path id="路径_23" data-name="路径 23" class="cls-23" d="M30.408,25.786H25.3L21.382,36.8H26.5Z" transform="translate(-19.266 -21.193)"/>
            <path id="路径_24" data-name="路径 24" class="cls-24" d="M78.207,25.648c-1.264.128-2.538.279-3.816.444L71.908,36.838h3.937l2.607-11.214C78.364,25.629,78.29,25.638,78.207,25.648Z" transform="translate(-19.266 -21.196)"/>
            <path id="路径_26" data-name="路径 26" class="cls-25" d="M67.578,27.082c-.9,4.121-1.723,7.448-2.473,9.948a5.858,5.858,0,0,1-1.227,2.4,5.656,5.656,0,0,1-2.76,1.323c-.014.009-.023.024-.032.028l-.5,2.15c1.25-.1,4.529-.558,6.535-2.552a9.165,9.165,0,0,0,2.144-3.965L71.7,26.439h0C70.292,26.643,68.912,26.86,67.578,27.082Z" transform="translate(-19.266 -21.18)"/>
            <path id="路径_27" data-name="路径 27" class="cls-26" d="M60.775,28.279,58.77,36.8h3.937l2.144-9.277C63.387,27.783,62.016,28.038,60.775,28.279Z" transform="translate(-19.266 -21.158)"/>
            <path id="路径_28" data-name="路径 28" class="cls-27" d="M54.727,25.282s-.8,4.527-1.528,7.07a6.241,6.241,0,0,1-.324.907v0c0,.009-.014.019-.019.028a2.091,2.091,0,0,1-.139.246,2.81,2.81,0,0,1-2.353,1.087c-1.7.146-2.519-.288-2.265-1.489l1.89-7.854H45.8l-2.033,8.941a1.944,1.944,0,0,0,1.394,2.292,5.756,5.756,0,0,0,2.061.321c6.465,0,8.711-.146,9.591-2.868.463-1.432,2.01-8.691,2.01-8.691H54.727Z" transform="translate(-19.266 -21.203)"/>
            <path id="路径_29" data-name="路径 29" class="cls-28" d="M78.526,31.172a4.858,4.858,0,0,0-.12.836c-.1,1.394.658,3.752,4.066,4.5,3.177.7,6.988-.7,7.952-1.115l.7-2.783a14.968,14.968,0,0,1-5.5,2.476C82.148,35.723,78.23,34.745,78.526,31.172Z" transform="translate(-19.266 -21.083)"/>
            <path id="路径_30" data-name="路径 30" class="cls-29" d="M92.063,26.763a5.066,5.066,0,0,0-4.126-1.593c-.213,0-.431,0-.653.024a10.316,10.316,0,0,0-5.97,2.051A6.943,6.943,0,0,0,78.522,31.3c-.3,3.573,3.622,4.556,7.1,3.913a14.968,14.968,0,0,0,5.5-2.476c-.922.491-7.8,4.026-8.355.052h0c.056-.009,5.456-.969,6.377-1.153,1.033-.208,3.279-.959,3.473-2.958A2.623,2.623,0,0,0,92.063,26.763Zm-5.8,4.357c-3.39.685-3.478.68-3.478.68a6.008,6.008,0,0,1,4.4-4.192C89.567,26.924,89.646,30.43,86.26,31.12Z" transform="translate(-19.266 -21.206)"/>
          </g>
        </g>
      </g>
    </g>
  </g>
</svg>
